<?xml version="1.0" encoding="utf-8"?>
<!-- Generator: Adobe Illustrator 19.0.0, SVG Export Plug-In . SVG Version: 6.00 Build 0)  -->
<svg version="1.1" id="Layer_1" xmlns="http://www.w3.org/2000/svg" xmlns:xlink="http://www.w3.org/1999/xlink" x="0px" y="0px"
	 viewBox="-483.5 120.5 610 65" style="enable-background:new -483.5 120.5 610 65;" xml:space="preserve">
<style type="text/css">
	.st0{fill:#B9B9B9;}
	.st1{fill:#FFFFFF;}
</style>
<circle class="st0" cx="-178.2" cy="152.8" r="30.2"/>
<path class="st0" d="M118.4,153.8h-593.8c-0.9,0-1.6-0.7-1.6-1.6l0,0c0-0.9,0.7-1.6,1.6-1.6h593.8c0.9,0,1.6,0.7,1.6,1.6l0,0
	C120,153,119.3,153.8,118.4,153.8z"/>
<path class="st1" d="M-161.4,169.2c1.9-1.9,2-5-0.3-6.9l-8.2-7c1.1-2.1,1.9-4.5,1.9-7.1c0-8-6.5-14.5-14.5-14.5
	c-8,0-14.5,6.5-14.5,14.5c0,8,6.5,14.5,14.5,14.5c2.6,0,5-0.7,7.1-1.9l7,8.2C-166.5,171.1-163.4,171.3-161.4,169.2z M-182.5,158.7
	c-5.8,0-10.5-4.7-10.5-10.5s4.7-10.5,10.5-10.5s10.5,4.7,10.5,10.5C-172,154-176.7,158.7-182.5,158.7z"/>
</svg>
