<?xml version="1.0" encoding="utf-8"?>
<!-- Generator: Adobe Illustrator 19.0.0, SVG Export Plug-In . SVG Version: 6.00 Build 0)  -->
<svg version="1.1" id="Layer_1" xmlns="http://www.w3.org/2000/svg" xmlns:xlink="http://www.w3.org/1999/xlink" x="0px" y="0px"
	 viewBox="-200 127 48 48" style="enable-background:new -200 127 48 48;" xml:space="preserve">
<style type="text/css">
	.st0{fill:#EF6B69;}
	.st1{fill:#F4C3C3;}
</style>
<polygon class="st0" points="-176,130 -171.3,133.6 -165.5,132.8 -163.3,138.3 -157.8,140.5 -158.6,146.3 -155,151 -158.6,155.7 
	-157.8,161.5 -163.3,163.7 -165.5,169.2 -171.3,168.4 -176,172 -180.7,168.4 -186.5,169.2 -188.7,163.7 -194.2,161.5 -193.4,155.7 
	-197,151 -193.4,146.3 -194.2,140.5 -188.7,138.3 -186.5,132.8 -180.7,133.6 "/>
<polygon class="st1" points="-165.4,141.6 -179,155.2 -184.6,149.6 -187.4,152.4 -179,160.8 -162.6,144.4 "/>
</svg>
