<?xml version="1.0" encoding="utf-8"?>
<!-- Generator: Adobe Illustrator 19.0.0, SVG Export Plug-In . SVG Version: 6.00 Build 0)  -->
<svg version="1.1" id="Layer_1" xmlns="http://www.w3.org/2000/svg" xmlns:xlink="http://www.w3.org/1999/xlink" x="0px" y="0px"
	 viewBox="-200 127 48 48" style="enable-background:new -200 127 48 48;" xml:space="preserve">
<style type="text/css">
	.st0{fill:#474349;}
	.st1{fill:#FFFFFF;}
</style>
<circle class="st0" cx="-176" cy="151" r="24"/>
<g>
	<path class="st1" d="M-190,149.4v4l0.1,0l2.8,1l-2.1,7.4c-0.2,0.5,0.2,1.1,0.7,1.3c0.5,0.2,1.1-0.2,1.3-0.7l2.1-7.3l5.5,2l0,7.8
		c0,0.6,0.5,1,1,1c0.6,0,1-0.5,1-1l0-8.1l10.8-1.7l2.1,6.8c0.2,0.5,0.7,0.8,1.3,0.7c0.5-0.2,0.8-0.7,0.7-1.3l-2-6.6l3.8-0.6v-3.6
		l-10.9-4.1L-190,149.4L-190,149.4L-190,149.4z M-172.1,147.9l7.7,2.8l-2.7,0.4l-8.2-2.7L-172.1,147.9z M-178.1,148.9l8.1,2.7
		l-3.1,0.5l-8-2.7L-178.1,148.9z M-184.1,149.8l7.9,2.6l-3,0.4l-7.8-2.6L-184.1,149.8z"/>
	<path class="st1" d="M-175.3,139.1c0.2,0.3,0.4,0.6,0.6,0.8c0.4,0.5,0.8,0.9,1.1,1.3c0.2,0.3,0.3,0.5,0.3,0.9
		c0,0.4-0.4,1.4-0.4,1.4l1,0.5c0,0,0.5-1.3,0.5-1.9c0-0.4-0.1-0.8-0.2-1.2c-0.1-0.3-0.3-0.6-0.6-0.9c-0.4-0.5-0.9-0.9-1.1-1.3
		c-0.2-0.3-0.3-0.5-0.3-0.8c0-0.1,0-0.1,0-0.2c0-0.4,0.1-0.6,0.2-0.9c0.1-0.2,0.3-0.4,0.5-0.6c0.4-0.3,0.8-0.5,0.8-0.5v0l-0.3-1.1
		c0,0-0.3,0.1-0.7,0.3c-0.4,0.2-0.9,0.6-1.2,1.2c-0.2,0.4-0.4,0.9-0.4,1.5c0,0.1,0,0.2,0,0.3C-175.6,138.4-175.5,138.8-175.3,139.1z
		"/>
	<path class="st1" d="M-180.1,139.7c0.2,0.3,0.4,0.6,0.6,0.8c0.4,0.5,0.8,0.9,1.1,1.3c0.2,0.3,0.2,0.5,0.3,0.9
		c0,0.4-0.4,1.4-0.4,1.4l1,0.5c0,0,0.5-1.3,0.5-1.9c0-0.4-0.1-0.8-0.2-1.2c-0.1-0.3-0.3-0.6-0.6-0.9c-0.4-0.5-0.9-0.9-1.1-1.3
		c-0.2-0.3-0.3-0.5-0.3-0.8c0-0.1,0-0.1,0-0.2c0-0.4,0.1-0.6,0.2-0.9c0.1-0.2,0.3-0.4,0.5-0.6c0.4-0.3,0.8-0.5,0.8-0.5v0l-0.3-1.1
		c0,0-0.3,0.1-0.7,0.3c-0.4,0.2-0.9,0.6-1.2,1.2c-0.2,0.4-0.4,0.9-0.4,1.5c0,0.1,0,0.2,0,0.3C-180.4,139-180.3,139.4-180.1,139.7z"
		/>
	<path class="st1" d="M-184.9,140.3c0.2,0.3,0.4,0.6,0.6,0.8c0.4,0.5,0.8,0.9,1.1,1.3c0.2,0.3,0.2,0.5,0.3,0.9
		c0,0.4-0.4,1.4-0.4,1.4l1,0.5c0,0,0.5-1.3,0.5-1.9c0-0.4-0.1-0.8-0.2-1.2c-0.1-0.3-0.3-0.6-0.6-0.9c-0.4-0.5-0.9-0.9-1.1-1.3
		c-0.2-0.3-0.3-0.5-0.3-0.8c0-0.1,0-0.1,0-0.2c0-0.4,0.1-0.6,0.2-0.9c0.1-0.2,0.3-0.4,0.5-0.6c0.4-0.3,0.8-0.5,0.8-0.5v0l-0.3-1.1
		c0,0-0.3,0.1-0.7,0.3c-0.4,0.2-0.9,0.6-1.2,1.2c-0.2,0.4-0.4,0.9-0.4,1.4c0,0.1,0,0.2,0,0.3C-185.2,139.7-185.1,140-184.9,140.3z"
		/>
</g>
</svg>
