<?xml version="1.0" encoding="utf-8"?>
<!-- Generator: Adobe Illustrator 19.0.0, SVG Export Plug-In . SVG Version: 6.00 Build 0)  -->
<svg version="1.1" id="Layer_1" xmlns="http://www.w3.org/2000/svg" xmlns:xlink="http://www.w3.org/1999/xlink" x="0px" y="0px"
	 viewBox="-200 127 48 48" style="enable-background:new -200 127 48 48;" xml:space="preserve">
<style type="text/css">
	.st0{fill:#474349;}
	.st1{fill:#FFFFFF;}
</style>
<circle class="st0" cx="-176" cy="151" r="24"/>
<g>
	<path class="st1" d="M-186.8,164.9c2.1,0,4-1.3,4.9-3.1l-0.5-0.1l-0.5-0.1c-0.2,0.4-0.4,0.7-0.7,1c-0.8,0.8-1.9,1.3-3.1,1.3
		c-1.2,0-2.3-0.5-3.1-1.3c-0.8-0.8-1.3-1.9-1.3-3.1c0-1.2,0.5-2.3,1.3-3.1c0.8-0.8,1.9-1.3,3.1-1.3c0.4,0,0.7,0,1.1,0.1l0.1,0
		l-0.1,0.1l-1.3,3.2l0,0l0,0c-0.1,0-0.1,0.1-0.2,0.1c-0.3,0.2-0.4,0.4-0.4,0.7c0,0.5,0.4,0.8,0.8,0.9h0l0,0c0.1,0.1,0.3,0.1,0.5,0.1
		l3.1,0.3l-0.1-2.6l-2.2,0.2l-0.2,0l0.1-0.2l1-2.3l0.1-0.1l0.1,0.1c0.3,0.2,0.6,0.4,0.8,0.6c0.1,0.1,0.2,0.2,0.3,0.4l-0.1-1.6
		c-0.2-0.2-0.4-0.3-0.6-0.4l-0.1-0.1l0-0.1l0.6-1.4l0-0.5l-0.4-1.3l-1.2,2.8l0,0.1l-0.1,0c-0.5-0.1-1-0.2-1.5-0.2
		c-3,0-5.5,2.4-5.5,5.5C-192.2,162.5-189.8,164.9-186.8,164.9z"/>
	<path class="st1" d="M-185.1,149.5c0.1,0,0.1,0,0.2,0l0.1,0l0,0.1l0.6,1l-0.9-3.1c-1,0-1.7,0.2-2.1,0.5c0,0.1-0.2,0.5,0,0.9
		C-186.9,149.2-186.2,149.5-185.1,149.5z"/>
	<circle class="st1" cx="-169.6" cy="139.2" r="2.6"/>
	<path class="st1" d="M-184.7,145.3l2.1,7.1l0.3,8.3l5.8,1.3l-3.5-3.2l0.5-6.4l-1.2-6.6c1.4-0.6,3.3-1.4,4.9-1.7
		c0.2,0,0.4-0.1,0.6-0.1l0.2,2.6c0,0.2,0.2,0.5,0.4,0.6c0.1,0.2,0.3,0.3,0.4,0.3l4.8,1.3c0.3,0.1,0.6,0,0.9-0.3
		c0.3,0.2,0.4,0.4,0.5,0.5c0,0.1,0.1,0.2,0.1,0.2c0,0.1,0,0.1,0,0.2c0,0.1-0.1,0.2-0.1,0.2c-0.1,0.2-0.3,0.3-0.6,0.5
		c-0.3,0.2-0.7,0.4-0.8,0.4l0,0h0h-1.8h-0.4h-2.9l1.3-2.3l-4.2-2.7c-0.6,0.2-1.2,0.5-1.8,0.7l0.4,2.5l2.2,1l-0.5,0.9h-1.4l0.2,1.1
		h0.6l-0.6,1l-0.2,3.3l2.1,1.7l-0.5,0.4l-0.5-0.3c-0.2,0-0.3-0.1-0.5-0.1l-0.1,0l0,0l-0.6-0.9l-0.1,1.5l2.2,2
		c0.2-0.2,0.4-0.4,0.4-0.6v-0.4l7.5-5.4l0.1-0.1l0.1,0.1l0.4,0.7l0.1,0.1l-0.1,0.1c-1.5,1-2.4,2.7-2.4,4.5c0,3,2.4,5.5,5.5,5.5
		c3,0,5.5-2.4,5.5-5.5c0-3-2.4-5.5-5.5-5.5c-0.6,0-1.3,0.1-1.9,0.3l-0.1,0l-0.1-0.1l-1.3-2.6l-0.1-0.1l0.1-0.1
		c0.3-0.1,0.7-0.4,1-0.7c0.3-0.3,0.5-0.5,0.6-0.8c0.1-0.2,0.1-0.4,0.1-0.6c0-0.2-0.1-0.5-0.2-0.7c-0.1-0.2-0.3-0.4-0.4-0.6
		c-0.2-0.2-0.4-0.3-0.6-0.5c0-0.5-0.2-0.9-0.6-1l-3.9-1.1l-0.2-3.2c0.2-0.5,0.1-1.1-0.2-1.8c-0.9-2.2-4-1.6-6.9-0.1
		c-2.4,1.2-3.9,0.9-4.8,2.7C-185.1,143.9-185,144.7-184.7,145.3L-184.7,145.3z M-169.3,152.9l-6.6,4.6l-0.9-2.8l1.6-2.9h3.5h0.4h1.5
		h0.1l0,0.1l0.4,0.8L-169.3,152.9L-169.3,152.9z M-167.7,155.8l0.1,0.1l1.6,3.1l0,0.1l0,0.1c0,0.1-0.1,0.2-0.1,0.3
		c0,0.5,0.4,0.9,0.9,0.9s0.9-0.4,0.9-0.9c0-0.4-0.3-0.7-0.6-0.8l-0.1,0l0-0.1l-1.6-3.1l-0.1-0.1l0.1-0.1c0.4-0.1,0.9-0.2,1.4-0.2
		c1.2,0,2.3,0.5,3.1,1.3c0.8,0.8,1.3,1.9,1.3,3.1c0,1.2-0.5,2.3-1.3,3.1c-0.8,0.8-1.9,1.3-3.1,1.3c-1.2,0-2.3-0.5-3.1-1.3
		c-0.8-0.8-1.3-1.9-1.3-3.1c0-1.2,0.5-2.3,1.3-3.1c0.1-0.1,0.3-0.3,0.5-0.4L-167.7,155.8z"/>
</g>
</svg>
