<?xml version="1.0" encoding="utf-8"?>
<!-- Generator: Adobe Illustrator 19.0.0, SVG Export Plug-In . SVG Version: 6.00 Build 0)  -->
<svg version="1.1" id="Layer_1" xmlns="http://www.w3.org/2000/svg" xmlns:xlink="http://www.w3.org/1999/xlink" x="0px" y="0px"
	 viewBox="-483.5 120.5 610 65" style="enable-background:new -483.5 120.5 610 65;" xml:space="preserve">
<style type="text/css">
	.st0{fill:#B9B9B9;}
	.st1{fill:#FFFFFF;}
</style>
<circle class="st0" cx="-178.2" cy="152.8" r="30.2"/>
<path class="st0" d="M118.4,153.8h-593.8c-0.9,0-1.6-0.7-1.6-1.6l0,0c0-0.9,0.7-1.6,1.6-1.6h593.8c0.9,0,1.6,0.7,1.6,1.6l0,0
	C120,153,119.3,153.8,118.4,153.8z"/>
<path class="st1" d="M-168.6,133.3h-16.9c-2.5,0-4.6,2.1-4.6,4.6v32.6l9.4-7.5l9.4,7.5v-23.9h7.3v-8.7
	C-163.9,135.4-166,133.3-168.6,133.3z M-165.8,144.6h-5.3v-6.7c0-1.4,1.1-2.7,2.6-2.7l0,0l0,0l0,0c1.4,0,2.6,1.2,2.6,2.7V144.6z"/>
</svg>
