<?xml version="1.0" encoding="utf-8"?>
<!-- Generator: Adobe Illustrator 19.0.0, SVG Export Plug-In . SVG Version: 6.00 Build 0)  -->
<svg version="1.1" id="Layer_1" xmlns="http://www.w3.org/2000/svg" xmlns:xlink="http://www.w3.org/1999/xlink" x="0px" y="0px"
	 viewBox="-483.5 120.5 610 65" style="enable-background:new -483.5 120.5 610 65;" xml:space="preserve">
<style type="text/css">
	.st0{fill:#B9B9B9;}
	.st1{fill:#FFFFFF;}
</style>
<circle class="st0" cx="-178.2" cy="152.8" r="30.2"/>
<path class="st0" d="M118.4,153.8h-593.8c-0.9,0-1.6-0.7-1.6-1.6l0,0c0-0.9,0.7-1.6,1.6-1.6h593.8c0.9,0,1.6,0.7,1.6,1.6l0,0
	C120,153,119.3,153.8,118.4,153.8z"/>
<g>
	<g>
		<path class="st1" d="M-168.9,151.4l-7.3,3.5c-0.7,0.3-1.6,0.5-2.5,0.5s-1.8-0.2-2.5-0.5l-8-3.8l-2.1,7.1c-0.3,0.9,0,2.2,0.6,2.9
			c0,0,3.7,4.6,11.6,4.6c8.5,0,11.6-4.6,11.6-4.6c0.5-0.8,0.7-2.1,0.5-3L-168.9,151.4z"/>
	</g>
	<path class="st1" d="M-159.5,143.3l-17.4-7c-1-0.4-2.6-0.4-3.6,0l-17.4,7c-1,0.4-1,1.1,0,1.6l17.5,8.4c1,0.5,2.5,0.5,3.5,0
		l14.7-7.1v10.7h-0.6l-0.8,12.6h4.1l-0.8-12.6h-0.6v-11.3c0,0,0,0,0-0.1l1.4-0.7C-158.5,144.5-158.5,143.7-159.5,143.3z
		 M-179.5,139.4l-11.9,4.9c-0.1,0-0.1,0-0.2,0c-0.2,0-0.4-0.1-0.5-0.4c-0.1-0.3,0-0.6,0.3-0.8l11.9-4.9c0.3-0.1,0.6,0,0.8,0.3
		C-179.1,139-179.2,139.3-179.5,139.4z"/>
</g>
</svg>
