<?xml version="1.0" encoding="utf-8"?>
<!-- Generator: Adobe Illustrator 19.0.0, SVG Export Plug-In . SVG Version: 6.00 Build 0)  -->
<svg version="1.1" id="Layer_1" xmlns="http://www.w3.org/2000/svg" xmlns:xlink="http://www.w3.org/1999/xlink" x="0px" y="0px"
	 viewBox="-483.5 120.5 610 65" style="enable-background:new -483.5 120.5 610 65;" xml:space="preserve">
<style type="text/css">
	.st0{fill:#B9B9B9;}
	.st1{fill:#FFFFFF;}
</style>
<circle class="st0" cx="-178.2" cy="152.8" r="30.2"/>
<path class="st0" d="M118.4,153.8h-593.8c-0.9,0-1.6-0.7-1.6-1.6l0,0c0-0.9,0.7-1.6,1.6-1.6h593.8c0.9,0,1.6,0.7,1.6,1.6l0,0
	C120,153,119.3,153.8,118.4,153.8z"/>
<path class="st1" d="M-157.9,137.6l-3.7-1l-1-3.7l-7.2,7.2l-2.8,5.6l-6.5,6.5c-0.5,0.5-0.5,1.4,0,1.9c0.2,0.2,0.6,0.4,0.9,0.4
	c0.4,0,0.7-0.1,0.9-0.4l4.6-4.6c0.7,1.1,1.1,2.3,1.1,3.7c0,3.7-3,6.7-6.7,6.7s-6.7-3-6.7-6.7s3-6.7,6.7-6.7c0.4,0,0.8,0,1.2,0.1
	l2.6-2.6c-1.2-0.5-2.4-0.7-3.7-0.7c-5.5,0-9.9,4.4-9.9,9.9s4.4,9.9,9.9,9.9s9.9-4.4,9.9-9.9c0-2.2-0.7-4.2-1.9-5.8l4.6-2.3
	c1.5,2.3,2.4,5.1,2.4,8.1c0,8.3-6.7,15-15,15s-15-6.7-15-15s6.7-15,15-15c1.8,0,3.5,0.3,5.1,0.9l3.2-3.2c-2.5-1.2-5.3-1.9-8.3-1.9
	c-10.6,0-19.2,8.6-19.2,19.2c0,10.6,8.6,19.2,19.2,19.2c10.6,0,19.2-8.6,19.2-19.2c0-4.1-1.3-7.9-3.5-11L-157.9,137.6z"/>
</svg>
