<?xml version="1.0" encoding="utf-8"?>
<!-- Generator: Adobe Illustrator 19.0.0, SVG Export Plug-In . SVG Version: 6.00 Build 0)  -->
<svg version="1.1" id="Layer_1" xmlns="http://www.w3.org/2000/svg" xmlns:xlink="http://www.w3.org/1999/xlink" x="0px" y="0px"
	 viewBox="-483.5 120.5 610 65" style="enable-background:new -483.5 120.5 610 65;" xml:space="preserve">
<style type="text/css">
	.st0{fill:#B9B9B9;}
	.st1{fill:#FFFFFF;}
</style>
<circle class="st0" cx="-178.2" cy="152.8" r="30.2"/>
<path class="st0" d="M118.4,153.8h-593.8c-0.9,0-1.6-0.7-1.6-1.6l0,0c0-0.9,0.7-1.6,1.6-1.6h593.8c0.9,0,1.6,0.7,1.6,1.6l0,0
	C120,153,119.3,153.8,118.4,153.8z"/>
<g>
	<path class="st1" d="M-158.9,162.2c0,0-0.3,0.1-0.9,0.1l-0.4-3.7l-0.1-0.8l-0.8,0.2c0,0-0.6,0.1-2.6,0c-2.1-4.8-6.5-6.4-9.7-7
		c-3-1-2-2.9-1.6-3.6c0.1-0.1,0.2-0.1,0.3-0.2c2.5-2.6,4.6-12.5-3.5-12.5s-6,9.9-3.5,12.5c0.1,0.1,0.2,0.2,0.2,0.2
		c0.4,0.7,1.4,2.6-1.6,3.6l0,0c-3.2,0.6-7.6,2.2-9.6,7c-2,0.1-2.6,0-2.6,0l-0.8-0.2l-0.5,4.6c-0.6,0-0.9-0.1-0.9-0.1l-0.5,2.9
		c0.1,0,3.2,0.6,9.7-0.1c2.2-0.2,3.8,0.1,4.7,0.9c0.8,0.8,0.7,1.9,0.7,1.9l-0.2,1.6h4.9h4.9l-0.2-1.6c0,0-0.1-1.1,0.7-1.9
		c0.8-0.8,2.5-1.2,4.7-0.9c6.4,0.7,9.5,0.1,9.7,0.1L-158.9,162.2z M-167.8,162.1c-3.2-0.3-5.6,0.3-7.1,1.8c-0.9,0.9-1.3,1.9-1.4,2.7
		h-1.9h-1.9c-0.2-0.8-0.6-1.8-1.4-2.7c-1.5-1.5-3.9-2.1-7.1-1.8c-2.9,0.3-5,0.3-6.5,0.3l0.3-2.9c1.1,0.1,3.6,0,8.7-0.6
		c4.5-0.5,6.4,2.2,6.9,3.3c0.1,0.1,0.1,0.3,0.2,0.4v0.1l0,0c0.3,0.7,0.7,1.8,0.7,2.7c0-0.9,0.4-2,0.7-2.7l0,0c0,0,0,0,0-0.1
		c0.1-0.2,0.1-0.3,0.2-0.4c0.6-1.1,2.4-3.8,6.9-3.3c5.1,0.6,7.6,0.6,8.7,0.6l0.3,2.9C-162.8,162.4-164.9,162.4-167.8,162.1z"/>
</g>
</svg>
