<?xml version="1.0" encoding="utf-8"?>
<!-- Generator: Adobe Illustrator 19.0.0, SVG Export Plug-In . SVG Version: 6.00 Build 0)  -->
<svg version="1.1" id="Layer_1" xmlns="http://www.w3.org/2000/svg" xmlns:xlink="http://www.w3.org/1999/xlink" x="0px" y="0px"
	 viewBox="-200 127 48 48" style="enable-background:new -200 127 48 48;" xml:space="preserve">
<style type="text/css">
	.st0{fill:#FFFFFF;}
</style>
<g>
	<rect x="-194.9" y="144.7" class="st0" width="8" height="25.8"/>
	<path class="st0" d="M-156.9,170.5v-14.1c0-6.9-1.5-12.3-9.6-12.3c-3.9,0-6.5,2.1-7.6,4.2h-0.1v-3.5h-7.7v25.8h8v-12.7
		c0-3.4,0.6-6.6,4.8-6.6c4.1,0,4.2,3.8,4.2,6.8v12.5H-156.9z"/>
	<path class="st0" d="M-190.9,131.9c-2.6,0-4.6,2.1-4.6,4.6c0,2.6,2.1,4.6,4.6,4.6c2.6,0,4.6-2.1,4.6-4.6
		C-186.2,134-188.3,131.9-190.9,131.9z"/>
</g>
</svg>
