<?xml version="1.0" encoding="utf-8"?>
<!-- Generator: Adobe Illustrator 19.0.0, SVG Export Plug-In . SVG Version: 6.00 Build 0)  -->
<svg version="1.1" id="Layer_1" xmlns="http://www.w3.org/2000/svg" xmlns:xlink="http://www.w3.org/1999/xlink" x="0px" y="0px"
	 viewBox="-200 127 48 48" style="enable-background:new -200 127 48 48;" xml:space="preserve">
<style type="text/css">
	.st0{fill:#FFFFFF;}
</style>
<g>
	<path class="st0" d="M-176,133.6c2.3,0.1,5,1.3,8,3.6c0.4,0.3,0.8,0.6,1.2,0.9c0.4,0.3,0.8,0.7,1.3,1.1c0.5,0.4,0.9,0.8,1.3,1.1
		c0.4,0.3,0.9,0.7,1.5,1.3c0.6,0.6,1.1,1,1.4,1.3c0.3,0.3,0.9,0.8,1.7,1.5c0.8,0.7,1.4,1.2,1.7,1.5c0.3,0.3,0.5,0.7,0.5,1.2v20.4
		c0,0.4-0.2,0.8-0.5,1.1c-0.3,0.3-0.7,0.5-1.1,0.5h-34.4c-0.4,0-0.8-0.1-1.1-0.5c-0.3-0.3-0.5-0.7-0.5-1.1v-20.4
		c0-0.4,0.1-0.8,0.4-1.1c4.4-4.6,7.9-7.7,10.3-9.5c2.8-2,5.4-2.9,7.8-2.9C-176.4,133.6-176.2,133.6-176,133.6z M-183.2,154.5
		l1.5-1.8l0.3-0.3h0.4h9.4h0.4l0.3,0.3l1.5,1.8l9.6-8.1l1.2,1.5l-9.6,8.1l9.6,10.9l-1.5,1.3l-12.2-13.7h-8.5l-12.2,13.7l-1.5-1.3
		l9.6-10.9l-9.6-8.1l1.2-1.5L-183.2,154.5z M-182.5,139.1c-2.2,1.6-5.3,4.4-9.4,8.6v18.2h31.4v-18.1c-4.7-4.2-7.8-6.9-9.3-8.1
		c-2.5-1.9-4.7-2.9-6.4-3c-0.2,0-0.5,0-0.7,0C-178.5,136.8-180.4,137.6-182.5,139.1z"/>
</g>
</svg>
