<?xml version="1.0" encoding="utf-8"?>
<!-- Generator: Adobe Illustrator 19.0.0, SVG Export Plug-In . SVG Version: 6.00 Build 0)  -->
<svg version="1.1" id="Layer_1" xmlns="http://www.w3.org/2000/svg" xmlns:xlink="http://www.w3.org/1999/xlink" x="0px" y="0px"
	 viewBox="-483.5 120.5 610 65" style="enable-background:new -483.5 120.5 610 65;" xml:space="preserve">
<style type="text/css">
	.st0{fill:#B9B9B9;}
	.st1{fill:#FFFFFF;}
</style>
<circle class="st0" cx="-178.2" cy="152.8" r="30.2"/>
<path class="st0" d="M118.4,153.8h-593.8c-0.9,0-1.6-0.7-1.6-1.6l0,0c0-0.9,0.7-1.6,1.6-1.6h593.8c0.9,0,1.6,0.7,1.6,1.6l0,0
	C120,153,119.3,153.8,118.4,153.8z"/>
<path class="st1" d="M-164.4,151.5v-2.8c0-2.6-3.8-2.6-3.8,0v2.6c0,0.1-0.1,0.2-0.2,0.2h-0.1c-0.1,0-0.2-0.1-0.2-0.2v-4.6
	c0-2.6-4.9-2.6-4.9,0v4.6c0,0.1-0.1,0.2-0.2,0.2l0,0c-0.1,0-0.2-0.1-0.2-0.2v-6.4c0-2.6-5.4-2.6-5.4,0v6.4c0,0.1-0.1,0.2-0.2,0.2
	h-0.2c-0.1,0-0.2-0.1-0.2-0.2V136c0-2.6-5.4-2.6-5.4,0v15.5v1.9l-0.3,4.5c-0.1,0.5-0.8,0.6-1.1,0.1l-3-4.3c-2.1-2.3-6.4,1.7-4.3,4
	l6.7,8.4c0.7,0.9,4.2,5.3,8.6,5.3c1.6,0,5.1-0.1,6.7-0.3c3.6-0.6,5.3-4,6-6c0.5-1.6,1.4-4.8,1.5-6.4
	C-164.1,156.9-164.4,151.5-164.4,151.5z"/>
</svg>
