<?xml version="1.0" encoding="utf-8"?>
<!-- Generator: Adobe Illustrator 19.0.0, SVG Export Plug-In . SVG Version: 6.00 Build 0)  -->
<svg version="1.1" id="Layer_1" xmlns="http://www.w3.org/2000/svg" xmlns:xlink="http://www.w3.org/1999/xlink" x="0px" y="0px"
	 viewBox="-483.5 120.5 610 65" style="enable-background:new -483.5 120.5 610 65;" xml:space="preserve">
<style type="text/css">
	.st0{fill:#B9B9B9;}
	.st1{fill:#FFFFFF;}
</style>
<circle class="st0" cx="-178.2" cy="152.8" r="30.2"/>
<path class="st0" d="M118.4,153.8h-593.8c-0.9,0-1.6-0.7-1.6-1.6l0,0c0-0.9,0.7-1.6,1.6-1.6h593.8c0.9,0,1.6,0.7,1.6,1.6l0,0
	C120,153,119.3,153.8,118.4,153.8z"/>
<path class="st1" d="M-162.8,141c-1.8-1.7-4.1-2.8-6.9-2.8c-1.8,0-3.5,0.5-5,1.3c-1.9,1.1-2.9,2.4-4,4.4c-1-1.9-2-3.2-4-4.4
	c-1.4-0.8-3.2-1.3-5-1.3c-2.7,0-5.1,1.1-6.9,2.8c-1.8,1.8-2.8,4.2-2.8,6.9c0,3.2,1.2,5.2,3.4,7.4l0,0l15.3,13.9l7.8-7.2
	c4.3-4,7.9-8.4,7.9-8.4s2.9-2.9,2.9-6.3C-159.9,145-161.1,142.7-162.8,141z M-183.5,144.6c-1.2,0-2.4,0.5-3.1,1.3
	c-0.8,0.8-1.3,1.9-1.3,3.1c0,0.8-0.6,1.3-1.3,1.3c-0.8,0-1.3-0.6-1.3-1.3c0-2,0.8-3.8,2.1-5c1.3-1.3,3-2.1,5-2.1
	c0.8,0,1.3,0.6,1.3,1.3C-182.1,143.9-182.7,144.6-183.5,144.6z"/>
</svg>
