<?xml version="1.0" encoding="utf-8"?>
<!-- Generator: Adobe Illustrator 19.0.0, SVG Export Plug-In . SVG Version: 6.00 Build 0)  -->
<svg version="1.1" id="Layer_1" xmlns="http://www.w3.org/2000/svg" xmlns:xlink="http://www.w3.org/1999/xlink" x="0px" y="0px"
	 viewBox="-200 127 48 48" style="enable-background:new -200 127 48 48;" xml:space="preserve">
<style type="text/css">
	.st0{fill:#FFFFFF;}
</style>
<g>
	<path class="st0" d="M-167.4,154.7c-2.5,2.5-2.5,4.9-4.9,4.9c-2.5,0-4.9-2.5-7.4-4.9c-2.5-2.5-4.9-4.9-4.9-7.4
		c0-2.5,2.5-2.5,4.9-4.9c2.5-2.5-4.9-9.9-7.4-9.9c-2.5,0-7.4,7.4-7.4,7.4c0,4.9,5.1,14.9,9.9,19.7c4.8,4.8,14.8,9.9,19.7,9.9
		c0,0,7.4-4.9,7.4-7.4C-157.5,159.6-164.9,152.2-167.4,154.7L-167.4,154.7z M-167.4,154.7"/>
</g>
</svg>
