<?xml version="1.0" encoding="utf-8"?>
<!-- Generator: Adobe Illustrator 19.0.0, SVG Export Plug-In . SVG Version: 6.00 Build 0)  -->
<svg version="1.1" id="Layer_1" xmlns="http://www.w3.org/2000/svg" xmlns:xlink="http://www.w3.org/1999/xlink" x="0px" y="0px"
	 viewBox="-200 127 48 48" style="enable-background:new -200 127 48 48;" xml:space="preserve">
<style type="text/css">
	.st0{fill:#474349;}
	.st1{fill:#FFFFFF;}
</style>
<circle class="st0" cx="-176" cy="151" r="24"/>
<g>
	<polygon class="st1" points="-177.1,164.4 -175,164.4 -174.1,161.6 -174.6,161.6 -173.8,159.3 -174.3,159.2 -173.4,156.9 
		-173.8,156.8 -172.7,155 -173.1,154.8 -171.8,152.7 -172.3,152.5 -171,150.6 -171.3,150.5 -170.4,149.3 -170.7,147 -172.9,148.2 
		-173.3,149.7 -174,149.4 -174.4,151.9 -174.9,151.7 -175.2,154.1 -175.7,153.9 -176,156.6 -176.6,156.5 -176.4,158.9 -177,158.8 
		-176.8,161.3 -177.4,161.2 	"/>
	<polygon class="st1" points="-180.9,164.4 -179.6,164.4 -179.5,162.4 -179.9,162.5 -179.9,160.9 -180.3,161 -180.7,159.3 
		-181,159.5 -181.3,157.9 -181.7,158 -182.1,156.4 -182.6,156.7 -182.9,155.7 -184.4,155.2 -184.4,156.8 -183.8,157.3 -184,157.4 
		-183,158.6 -183.3,158.8 -182.3,160 -182.6,160.2 -181.7,161.3 -182,161.4 -181.2,162.8 -181.6,162.9 	"/>
	<path class="st1" d="M-191.7,158.2l3.1-3.5c0,0,0,4.3,2.9,5l0.1-6.3l7,2.7c0,0-0.5-3.7-5.3-4.4l3.4-0.6l0-1.1
		c0-0.3,0.1-0.7,0.2-1.2c-1.3-0.3-3.1-0.1-5.7,1.3l1.1-3.1c0,0-2.7,0.3-3.1,3.5c0,0-3.1-1.1-4.8,1.3l4.2,0.6
		C-188.6,152.4-192.7,153.8-191.7,158.2z"/>
	<path class="st1" d="M-179.2,150.1l9.6-5l1.1,9.1c4-1.5,3.4-7.6,3.4-7.6l5,4.5c0.8-6.5-5.4-7.8-5.4-7.8l5.9-1.5
		c-2.7-3.2-7-1.1-7-1.1c-1.2-4.5-5-4.5-5-4.5l2.1,4.3c-9.7-3.8-11.6,2-11.6,2l8.9,0.6C-179.1,144.7-179.2,150.1-179.2,150.1z"/>
</g>
</svg>
