<?xml version="1.0" encoding="utf-8"?>
<!-- Generator: Adobe Illustrator 19.0.0, SVG Export Plug-In . SVG Version: 6.00 Build 0)  -->
<svg version="1.1" id="Layer_1" xmlns="http://www.w3.org/2000/svg" xmlns:xlink="http://www.w3.org/1999/xlink" x="0px" y="0px"
	 viewBox="-483.5 120.5 610 65" style="enable-background:new -483.5 120.5 610 65;" xml:space="preserve">
<style type="text/css">
	.st0{fill:#B9B9B9;}
	.st1{fill:#FFFFFF;}
</style>
<circle class="st0" cx="-178.2" cy="152.8" r="30.2"/>
<path class="st0" d="M118.4,153.8h-593.8c-0.9,0-1.6-0.7-1.6-1.6l0,0c0-0.9,0.7-1.6,1.6-1.6h593.8c0.9,0,1.6,0.7,1.6,1.6l0,0
	C120,153,119.3,153.8,118.4,153.8z"/>
<g>
	<g>
		<path class="st1" d="M-161.5,153l-13.2,2v3c0,0.5-0.2,0.8-0.4,0.8h-5.7c-0.2,0-0.4-0.4-0.4-0.8v-3l-13.2-2c-0.7,0-1.5-0.5-1.8-0.9
			v10.3c0,1.7,1.4,3.1,3.1,3.1h30.3c1.7,0,3.1-1.4,3.1-3.1v-10.3C-160.1,152.6-160.8,153-161.5,153z"/>
		<path class="st1" d="M-179.7,155.3v1.5c0,0.4,0.1,0.6,0.2,0.6h3.2c0.1,0,0.2-0.3,0.2-0.6v-1.5l-1.8,0.3L-179.7,155.3z"/>
	</g>
	<path class="st1" d="M-161.8,139.9h-8.1v-1c0-1.6-1.3-2.8-2.8-2.8h-10.6c-1.6,0-2.8,1.3-2.8,2.8v1h-8.1c-1.1,0-2,1.6-2,2.1v8.1
		c0,0.6,0.9,1.5,2,1.5l16.1,2.4l16.1-2.4c1.1,0,2-0.9,2-1.5V142C-159.7,141.4-160.7,139.9-161.8,139.9z"/>
</g>
</svg>
